<svg width="1079" height="650" viewBox="0 0 1079 650" fill="none" xmlns="http://www.w3.org/2000/svg">
<path fill-rule="evenodd" clip-rule="evenodd" d="M888.375 100.502V201.004L1029.09 201.067C1112.86 201.106 1175.2 202.2 1183.15 203.774C1205.56 208.206 1228.48 219.045 1247.65 234.271C1268.62 250.934 1279.15 265.064 1287.28 287.475C1292.65 302.273 1293.01 314.112 1293.01 474.027V644.779H1411.9H1530.8L1529.8 467.277L1528.8 289.775L1359.95 144.887L1191.11 0H1039.74H888.375V100.502ZM243.39 103.042V203.614H121.695H0V426.807V650H121.695H243.39V426.69V203.38L390.185 204.15C532.614 204.896 537.503 205.089 554.574 210.626C582.601 219.716 609.03 237.521 624.534 257.76C650.847 292.111 649.314 279.244 650.376 474.448L651.316 647.39H768.387H885.458L884.633 469.882L883.812 292.375L715.72 148.145L547.625 3.91566L395.509 3.19259L243.39 2.46948V103.042ZM1471.88 5.18958C1447.73 11.4364 1430.79 33.3458 1434.1 54.0492C1440.53 94.3492 1494.64 110.127 1525.6 80.7305C1546.45 60.9199 1546.1 35.0687 1524.72 17.6153C1508.31 4.21326 1491.2 0.19319 1471.88 5.18958ZM1500.03 10.4313C1523.47 16.0203 1539.1 39.4307 1532.8 59.5154C1523.44 89.311 1481.04 99.7815 1454.83 78.7701C1429.38 58.3773 1438.23 21.7006 1470.99 11.7548C1485.82 7.25443 1486.56 7.22049 1500.03 10.4313ZM1469.47 48.2932C1469.47 68.5972 1470.3 73.0924 1474.03 73.0924C1477.33 73.0924 1478.6 70.1922 1478.6 62.6506C1478.6 53.5558 1479.48 52.2114 1485.44 52.2297C1490.23 52.2428 1494.38 55.3857 1499.22 62.6715C1503.04 68.4014 1507.49 73.0924 1509.11 73.0924C1513.2 73.0924 1512.9 72.0012 1506.04 62.0267C1500.05 53.3052 1500.05 53.2582 1506.04 48.8518C1514.09 42.9418 1513.72 32.6201 1505.3 27.5585C1501.47 25.256 1492.24 23.494 1484 23.494H1469.47V48.2932ZM1501.2 32.8159C1503.83 35.0739 1505.98 37.7757 1505.98 38.8199C1505.98 43.2289 1498 46.988 1488.64 46.988C1479.19 46.988 1478.6 46.4476 1478.6 37.8514C1478.6 29.4902 1479.35 28.7149 1487.51 28.7149C1492.41 28.7149 1498.57 30.5604 1501.2 32.8159Z" fill="white" fill-opacity="0.15"/>
</svg>
