<svg width="76" height="36" viewBox="0 0 76 36" fill="none" xmlns="http://www.w3.org/2000/svg">
<path fill-rule="evenodd" clip-rule="evenodd" d="M43.8134 5.56626V11.1325L50.7531 11.136C54.8847 11.1382 57.9592 11.1987 58.3511 11.2859C59.4565 11.5314 60.5869 12.1317 61.5324 12.975C62.5668 13.8979 63.086 14.6805 63.4869 15.9217C63.7516 16.7413 63.7696 17.397 63.7696 26.2538V35.7108H69.6332H75.4969L75.4475 25.8799L75.3981 16.0491L67.071 8.02453L58.7441 0H51.2787H43.8134V5.56626ZM12.0037 5.70694V11.2771H6.00184H0V23.6386V36H6.00184H12.0037V23.632V11.2641L19.2434 11.3067C26.2678 11.3481 26.5089 11.3588 27.3508 11.6654C28.7331 12.1689 30.0365 13.155 30.8012 14.276C32.0989 16.1785 32.0233 15.4658 32.0756 26.2771L32.122 35.8554H37.8958H43.6695L43.6289 26.0242L43.5884 16.1931L35.2983 8.20496L27.0081 0.216867L19.506 0.17682L12.0037 0.136771V5.70694ZM72.5909 0.287423C71.4002 0.633398 70.5645 1.84684 70.7276 2.99349C71.0451 5.22549 73.7137 6.09932 75.2403 4.47123C76.269 3.37402 76.2514 1.94227 75.1971 0.975615C74.3876 0.23335 73.544 0.0106997 72.5909 0.287423ZM73.9793 0.577735C75.1356 0.887277 75.9063 2.18385 75.5954 3.29624C75.134 4.94646 73.043 5.52636 71.7501 4.36265C70.4952 3.2332 70.9316 1.20188 72.5473 0.651037C73.2784 0.401784 73.315 0.399904 73.9793 0.577735ZM72.4722 2.6747C72.4722 3.79923 72.5131 4.04819 72.6973 4.04819C72.8598 4.04819 72.9224 3.88757 72.9224 3.46988C72.9224 2.96617 72.9659 2.89171 73.26 2.89272C73.496 2.89345 73.7005 3.06752 73.9397 3.47104C74.1278 3.78838 74.3472 4.04819 74.4273 4.04819C74.6292 4.04819 74.6143 3.98776 74.2759 3.43533C73.9802 2.95229 73.9802 2.94969 74.2759 2.70564C74.6727 2.37831 74.6548 1.80665 74.2393 1.52631C74.0506 1.3988 73.595 1.3012 73.189 1.3012H72.4722V2.6747ZM74.0371 1.81749C74.1667 1.94255 74.2728 2.09219 74.2728 2.15002C74.2728 2.39422 73.8791 2.60241 73.4175 2.60241C72.9516 2.60241 72.9224 2.57248 72.9224 2.09639C72.9224 1.6333 72.9596 1.59036 73.3619 1.59036C73.6034 1.59036 73.9073 1.69258 74.0371 1.81749Z" fill="#FF002E"/>
</svg>
